<svg width="1440" height="437" viewBox="0 0 1440 437" fill="none" xmlns="http://www.w3.org/2000/svg">
<path d="M-106.115 311.227C-19.2853 308.355 67.8484 311.227 154.689 311.227C201.794 311.227 248.651 316.214 295.715 316.564C345.252 316.932 395.417 320.04 444.055 308.46C474.96 301.102 521.701 284.255 530.232 249.065C534.834 230.082 525.636 195.106 507.205 185.322C479.828 170.788 443.298 201.426 432.294 224.457C410.662 269.735 434.037 313.983 464.907 347.793C514.41 402.01 575.111 428.345 648.132 433.575C725.79 439.137 805.444 424.668 881.067 408.077C946.269 393.773 1025.59 376.609 1053.52 307.669C1061.55 287.841 1065.7 265.13 1050.75 247.583C1037.8 232.382 1017.39 223.822 998.77 218.033C971.02 209.408 941.414 204.976 915.36 221.393C891.433 236.471 848.819 281.398 895.2 296.601C923.841 305.989 956.819 302.074 986.318 300.554C1041.51 297.709 1096.72 290.992 1150.67 278.911C1204.59 266.836 1256.07 247.941 1306.62 225.742C1370.72 197.586 1435.15 164.755 1492.11 123.851C1528.09 98.0204 1564.71 69.7732 1594.3 36.4882C1604.3 25.2358 1613.05 13.028 1622.96 1.70117" stroke="#1D0429" stroke-width="3" stroke-linecap="round"/>
<path d="M450.677 253.453C456.82 260.899 466.01 269.329 476.784 267.982C486.712 266.741 493.948 257.465 491.313 248.243" stroke="#242424" stroke-width="3" stroke-linecap="round"/>
<path d="M462.139 224.278L460.055 237.824" stroke="#242424" stroke-width="3" stroke-linecap="round"/>
<path d="M496.523 224.278L488.187 239.908" stroke="#242424" stroke-width="3" stroke-linecap="round"/>
<path d="M931.015 264.915C938.739 275.329 943.274 280.544 956.022 280.544C962.254 280.544 975.367 274.43 971.651 266.998" stroke="#242424" stroke-width="3" stroke-linecap="round"/>
<path d="M953.938 233.656L945.603 255.537" stroke="#242424" stroke-width="3" stroke-linecap="round"/>
<path d="M976.861 241.992L966.442 255.537" stroke="#242424" stroke-width="3" stroke-linecap="round"/>
</svg>
