<svg width="147" height="31" viewBox="0 0 147 31" fill="none" xmlns="http://www.w3.org/2000/svg">
<path d="M13.1 7.71901C9.88101 7.54493 6.74214 6.76298 3.83813 5.4367C6.60675 2.33375 10.6353 0.377478 15.1226 0.377478C19.3999 0.377478 23.2599 2.15691 26.0092 5.01118C22.0248 7.01995 17.5762 7.9594 13.1 7.71901Z" fill="#6C2B89"/>
<path d="M17.4878 30.4374C16.7169 30.559 15.9267 30.6226 15.1226 30.6226C11.829 30.6226 8.78407 29.5671 6.30005 27.7793L14.5037 19.2055C16.3522 22.6787 17.3662 26.5221 17.4878 30.4374Z" fill="#6C2B89"/>
<path d="M1.91206 22.8613C0.696299 20.684 0 18.1751 0 15.5005C0 13.5359 0.378543 11.6598 1.06103 9.93836C4.36016 10.7286 7.47692 12.1626 10.2234 14.1742L1.91206 22.8613Z" fill="#6C2B89"/>
<path d="M23.1497 21.3579C23.8709 16.785 25.8216 12.5105 28.7671 8.97651C29.7148 10.9521 30.2453 13.1654 30.2453 15.5002C30.2453 20.9573 27.3551 25.7374 23.0198 28.3955C22.7408 26.069 22.7794 23.701 23.1497 21.3579Z" fill="#6C2B89"/>
<path d="M48.7698 8.80088H48.6308C47.2576 8.74525 45.9053 9.12418 44.765 9.89247C43.8021 10.6121 43.0685 11.5924 42.6548 12.7188V2.46338H39.2827V28.1714H42.6409V17.325C42.5749 15.8928 43.0581 14.4848 43.9933 13.3967C44.4487 12.8961 45.0084 12.5067 45.6341 12.246C46.2599 11.9887 46.9308 11.8705 47.6087 11.8984C48.2171 11.874 48.8255 11.9748 49.3956 12.1939C49.9657 12.4129 50.4837 12.7431 50.9217 13.1672C51.7804 14.012 52.208 15.1975 52.2045 16.7236V28.168H55.5836V17.4259C55.5836 14.6621 55.0065 12.5311 53.8558 11.0362C52.6982 9.54135 51.0052 8.7974 48.7698 8.80088Z" fill="#231F20"/>
<path d="M73.9415 20.5611C73.9415 22.136 73.4966 23.3805 72.6031 24.2948C72.1547 24.7467 71.6158 25.0979 71.0213 25.3343C70.4304 25.5672 69.7942 25.6749 69.158 25.6506C68.56 25.6819 67.9656 25.588 67.4094 25.3725C66.8531 25.157 66.3456 24.8302 65.9215 24.4061C65.1254 23.5752 64.729 22.421 64.729 20.9366V9.32886H61.35V20.2483C61.35 22.9946 61.9479 25.0944 63.1473 26.551C64.3466 28.0076 66.0605 28.7377 68.2958 28.7377H68.4314C69.7455 28.7933 71.0457 28.4422 72.1581 27.733C73.1698 27.0134 73.9346 25.9982 74.3552 24.8302C74.4804 24.5034 74.5847 24.1731 74.6751 23.8359V28.1745H77.3449V9.33233H73.9728L73.9415 20.5611Z" fill="#231F20"/>
<path d="M100.558 11.5852C99.7375 10.6779 98.7328 9.95132 97.6134 9.46463C96.4905 8.97445 95.2773 8.73458 94.057 8.75196C92.6943 8.73458 91.3489 9.05789 90.1356 9.68364C88.9189 10.3372 87.9246 11.3349 87.2711 12.5517C87.2572 12.576 87.2433 12.6004 87.2328 12.6247V2.46313H83.8607V28.1712H86.5167V24.2637C86.6001 24.4445 86.6697 24.6322 86.767 24.806C87.4171 26.0541 88.4113 27.0866 89.6316 27.7784C90.897 28.4771 92.3258 28.8317 93.772 28.8039C95.0721 28.8178 96.3619 28.5536 97.5508 28.0287C98.6633 27.5281 99.6645 26.8015 100.485 25.8976C101.309 24.9903 101.948 23.93 102.369 22.7793C102.807 21.573 103.03 20.2971 103.019 19.0143V18.3781C103.026 17.1058 102.814 15.8438 102.39 14.648C101.98 13.5181 101.357 12.4787 100.558 11.5852ZM98.8684 22.4316C98.3921 23.4572 97.6377 24.3298 96.6922 24.9486C95.7014 25.5743 94.5507 25.8941 93.3791 25.8663C92.3049 25.8733 91.2446 25.6195 90.2886 25.1293C89.3395 24.6461 88.5365 23.9161 87.9664 23.0157C87.358 22.0179 87.0521 20.8673 87.0903 19.6992V18.0653C87.0555 16.8624 87.3545 15.6735 87.9525 14.6306C88.5017 13.7058 89.2943 12.948 90.2469 12.4509C91.2133 11.9433 92.2875 11.6826 93.3757 11.693C94.5263 11.6687 95.6562 11.9676 96.647 12.5552C97.596 13.1427 98.3608 13.9944 98.8441 15.0026C99.3933 16.1567 99.6645 17.4221 99.6332 18.7015C99.6645 19.9808 99.4038 21.2531 98.8719 22.4177V22.4316H98.8684Z" fill="#231F20"/>
<path d="M120.245 20.5611C120.245 22.136 119.8 23.3805 118.906 24.2948C118.458 24.7467 117.919 25.0979 117.325 25.3343C116.734 25.5672 116.098 25.6749 115.461 25.6506C114.863 25.6819 114.269 25.588 113.713 25.3725C113.156 25.157 112.649 24.8302 112.225 24.4061C111.429 23.5752 111.032 22.421 111.032 20.9366V9.32886H107.653V20.2483C107.653 22.9946 108.251 25.0944 109.451 26.551C110.65 28.0076 112.36 28.7377 114.585 28.7377H114.721C116.035 28.7933 117.335 28.4422 118.448 27.733C119.459 27.0134 120.224 25.9982 120.645 24.8302C120.77 24.5034 120.874 24.1731 120.965 23.8359V28.1745H123.634V9.33233H120.262L120.245 20.5611Z" fill="#231F20"/>
<path d="M138.176 17.3943L145.098 9.36381H141.545L133.532 18.7049V2.46313H130.16V28.1712H133.532V19.4002H136.028L143.095 28.1712H146.999L138.176 17.3943Z" fill="#231F20"/>
</svg>
